<svg width="88" height="31" viewBox="0 0 88 31" fill="none" xmlns="http://www.w3.org/2000/svg">
<path d="M8.912 21C8.208 21 7.6 20.824 7.088 20.472C6.576 20.12 6.18133 19.624 5.904 18.984C5.63733 18.344 5.504 17.608 5.504 16.776C5.504 15.7947 5.65333 14.9733 5.952 14.312C5.45067 13.8107 4.896 13.56 4.288 13.56C3.776 13.56 3.344 13.784 2.992 14.232C2.64 14.6693 2.464 15.4587 2.464 16.6C2.464 17.848 2.752 18.824 3.328 19.528C3.91467 20.232 4.71467 20.808 5.728 21.256C6.368 21.5333 6.85867 21.7573 7.2 21.928C7.552 22.1093 7.91467 22.3493 8.288 22.648C8.672 22.9573 9.008 23.3253 9.296 23.752L8.224 24.456C7.89333 23.944 7.456 23.512 6.912 23.16C6.37867 22.808 5.79733 22.632 5.168 22.632C4.272 22.632 3.36533 22.8773 2.448 23.368L2.016 22.04C2.688 21.816 3.46133 21.704 4.336 21.704C3.664 21.384 3.088 21.0213 2.608 20.616C2.128 20.2 1.73867 19.6507 1.44 18.968C1.14133 18.2747 0.992 17.416 0.992 16.392C0.992 15.4853 1.136 14.7333 1.424 14.136C1.712 13.5387 2.09067 13.096 2.56 12.808C3.04 12.52 3.56267 12.376 4.128 12.376C4.544 12.376 4.95467 12.4667 5.36 12.648C5.776 12.8187 6.14933 13.08 6.48 13.432C7.06667 12.728 7.872 12.376 8.896 12.376C9.96267 12.376 10.8 12.776 11.408 13.576C12.016 14.3653 12.32 15.4373 12.32 16.792C12.32 18.0827 12.016 19.1067 11.408 19.864C10.8107 20.6213 9.97867 21 8.912 21ZM8.896 13.56C8.30933 13.56 7.856 13.8267 7.536 14.36C7.216 14.8933 7.056 15.6987 7.056 16.776C7.056 17.768 7.216 18.5253 7.536 19.048C7.86667 19.56 8.32533 19.816 8.912 19.816C9.49867 19.816 9.952 19.56 10.272 19.048C10.6027 18.536 10.768 17.784 10.768 16.792C10.768 15.7147 10.6027 14.9093 10.272 14.376C9.952 13.832 9.49333 13.56 8.896 13.56ZM17.6005 12.376C18.2085 12.376 18.7525 12.504 19.2325 12.76C19.7232 13.016 20.1018 13.384 20.3685 13.864C20.6458 14.344 20.7845 14.904 20.7845 15.544V20.936C20.7845 21.6187 20.6512 22.2267 20.3845 22.76C20.1285 23.2933 19.7498 23.7093 19.2485 24.008C18.7578 24.3067 18.1712 24.456 17.4885 24.456C16.7418 24.456 16.1178 24.3067 15.6165 24.008C15.1152 23.7093 14.7418 23.3147 14.4965 22.824C14.2618 22.344 14.1445 21.8213 14.1445 21.256C14.1445 20.552 14.3205 19.848 14.6725 19.144L15.9365 19.48C15.7338 20.0667 15.6325 20.6587 15.6325 21.256C15.6325 21.8747 15.7925 22.3653 16.1125 22.728C16.4325 23.0907 16.8912 23.272 17.4885 23.272C18.1285 23.272 18.5925 23.048 18.8805 22.6C19.1685 22.152 19.3125 21.5387 19.3125 20.76V15.64C19.3125 15.0107 19.1738 14.5093 18.8965 14.136C18.6192 13.752 18.1872 13.56 17.6005 13.56C17.0138 13.56 16.5765 13.7253 16.2885 14.056C16.0112 14.376 15.8725 14.7707 15.8725 15.24C15.8725 15.656 15.9418 16.0827 16.0805 16.52L14.7525 16.792C14.4965 16.2587 14.3685 15.736 14.3685 15.224C14.3685 14.6693 14.5125 14.1787 14.8005 13.752C15.0885 13.3147 15.4778 12.9787 15.9685 12.744C16.4592 12.4987 17.0032 12.376 17.6005 12.376ZM30.9901 21C30.2861 21 29.6781 20.824 29.1661 20.472C28.6541 20.12 28.2595 19.624 27.9821 18.984C27.7155 18.344 27.5821 17.608 27.5821 16.776C27.5821 15.7947 27.7315 14.9733 28.0301 14.312C27.5288 13.8107 26.9741 13.56 26.3661 13.56C25.8541 13.56 25.4221 13.784 25.0701 14.232C24.7181 14.6693 24.5421 15.4587 24.5421 16.6C24.5421 17.848 24.8301 18.824 25.4061 19.528C25.9928 20.232 26.7928 20.808 27.8061 21.256C28.4461 21.5333 28.9368 21.7573 29.2781 21.928C29.6301 22.1093 29.9928 22.3493 30.3661 22.648C30.7501 22.9573 31.0861 23.3253 31.3741 23.752L30.3021 24.456C29.9715 23.944 29.5341 23.512 28.9901 23.16C28.4568 22.808 27.8755 22.632 27.2461 22.632C26.3501 22.632 25.4435 22.8773 24.5261 23.368L24.0941 22.04C24.7661 21.816 25.5395 21.704 26.4141 21.704C25.7421 21.384 25.1661 21.0213 24.6861 20.616C24.2061 20.2 23.8168 19.6507 23.5181 18.968C23.2195 18.2747 23.0701 17.416 23.0701 16.392C23.0701 15.4853 23.2141 14.7333 23.5021 14.136C23.7901 13.5387 24.1688 13.096 24.6381 12.808C25.1181 12.52 25.6408 12.376 26.2061 12.376C26.6221 12.376 27.0328 12.4667 27.4381 12.648C27.8541 12.8187 28.2275 13.08 28.5581 13.432C29.1448 12.728 29.9501 12.376 30.9741 12.376C32.0408 12.376 32.8781 12.776 33.4861 13.576C34.0941 14.3653 34.3981 15.4373 34.3981 16.792C34.3981 18.0827 34.0941 19.1067 33.4861 19.864C32.8888 20.6213 32.0568 21 30.9901 21ZM30.9741 13.56C30.3875 13.56 29.9341 13.8267 29.6141 14.36C29.2941 14.8933 29.1341 15.6987 29.1341 16.776C29.1341 17.768 29.2941 18.5253 29.6141 19.048C29.9448 19.56 30.4035 19.816 30.9901 19.816C31.5768 19.816 32.0301 19.56 32.3501 19.048C32.6808 18.536 32.8461 17.784 32.8461 16.792C32.8461 15.7147 32.6808 14.9093 32.3501 14.376C32.0301 13.832 31.5715 13.56 30.9741 13.56ZM47.7906 12.376C48.324 12.376 48.8146 12.5147 49.2626 12.792C49.7106 13.0693 50.068 13.4853 50.3346 14.04C50.612 14.5947 50.7506 15.272 50.7506 16.072C50.7506 16.8933 50.692 17.6133 50.5746 18.232C50.4573 18.84 50.2813 19.4 50.0466 19.912L48.7666 19.576C48.9373 19 49.06 18.4453 49.1346 17.912C49.22 17.3787 49.2626 16.7707 49.2626 16.088C49.2626 15.16 49.1133 14.5093 48.8146 14.136C48.516 13.752 48.1373 13.56 47.6786 13.56C47.2733 13.56 46.948 13.704 46.7026 13.992C46.4573 14.2693 46.3346 14.696 46.3346 15.272V18.28L44.9266 18.408V15.272C44.9266 14.696 44.804 14.2693 44.5586 13.992C44.3133 13.704 43.9826 13.56 43.5666 13.56C43.1506 13.56 42.8146 13.704 42.5586 13.992C42.3133 14.2693 42.1906 14.696 42.1906 15.272V18.248L40.7826 18.408V15.272C40.7826 14.696 40.66 14.2693 40.4146 13.992C40.1693 13.704 39.8386 13.56 39.4226 13.56C38.9213 13.56 38.532 13.7947 38.2546 14.264C37.988 14.7227 37.8546 15.3947 37.8546 16.28C37.8546 17.336 38.084 18.1893 38.5426 18.84C39.0013 19.4907 39.5346 19.976 40.1426 20.296C40.7613 20.616 41.54 20.9307 42.4786 21.24C43.4706 21.5707 44.3293 21.912 45.0546 22.264C45.78 22.6267 46.3453 23.096 46.7506 23.672L45.8226 24.456C45.2146 23.784 44.6013 23.3093 43.9826 23.032C43.3746 22.7653 42.7186 22.632 42.0146 22.632C41.46 22.632 40.9373 22.7067 40.4466 22.856C39.956 23.016 39.46 23.2453 38.9586 23.544L38.5266 22.216C38.9426 22.0347 39.3426 21.9013 39.7266 21.816C40.1106 21.7413 40.564 21.704 41.0866 21.704C39.7106 21.4053 38.58 20.8133 37.6946 19.928C36.82 19.0427 36.3826 17.8107 36.3826 16.232C36.3826 14.9413 36.6546 13.976 37.1986 13.336C37.7426 12.696 38.4306 12.376 39.2626 12.376C40.468 12.376 41.2146 12.9733 41.5026 14.168C41.6093 13.5813 41.8333 13.1387 42.1746 12.84C42.5266 12.5307 42.98 12.376 43.5346 12.376C44.132 12.376 44.596 12.52 44.9266 12.808C45.2573 13.096 45.4973 13.5493 45.6466 14.168C45.7533 13.5813 45.9933 13.1387 46.3666 12.84C46.74 12.5307 47.2146 12.376 47.7906 12.376ZM56.374 12.568C56.374 12.9413 56.47 13.2933 56.662 13.624C56.854 13.944 57.1473 14.3493 57.542 14.84C58.0433 15.4587 58.4273 16.008 58.694 16.488C58.9607 16.968 59.094 17.5227 59.094 18.152C59.094 18.7707 58.9447 19.3147 58.646 19.784C58.358 20.2427 57.9633 20.6 57.462 20.856C56.9607 21.1013 56.3953 21.224 55.766 21.224C55.062 21.224 54.4593 21.0853 53.958 20.808C53.4673 20.5307 53.094 20.1733 52.838 19.736C52.5927 19.288 52.47 18.808 52.47 18.296C52.47 17.6987 52.6193 17.128 52.918 16.584L54.166 16.92C54.0273 17.336 53.958 17.7787 53.958 18.248C53.958 18.792 54.118 19.2293 54.438 19.56C54.758 19.88 55.2007 20.04 55.766 20.04C56.3633 20.04 56.806 19.864 57.094 19.512C57.3927 19.16 57.542 18.696 57.542 18.12C57.542 17.64 57.4407 17.2293 57.238 16.888C57.046 16.536 56.7367 16.104 56.31 15.592C56.0007 15.2293 55.75 14.92 55.558 14.664C55.3767 14.3973 55.222 14.0933 55.094 13.752C54.966 13.4 54.902 13.0053 54.902 12.568H56.374ZM60.992 16.344C60.992 15.5653 61.1307 14.8773 61.408 14.28C61.6853 13.6827 62.08 13.2187 62.592 12.888C63.1147 12.5467 63.728 12.376 64.432 12.376C65.4987 12.376 66.3307 12.7333 66.928 13.448C67.536 14.1627 67.84 15.128 67.84 16.344C67.84 17.2293 67.744 18.0507 67.552 18.808C67.3707 19.5547 67.1307 20.2853 66.832 21H65.376C65.696 20.1467 65.936 19.3467 66.096 18.6C66.2667 17.8427 66.352 17.0907 66.352 16.344C66.352 15.416 66.1813 14.7227 65.84 14.264C65.4987 13.7947 65.0293 13.56 64.432 13.56C63.824 13.56 63.344 13.7947 62.992 14.264C62.6507 14.7227 62.48 15.416 62.48 16.344C62.48 17.0907 62.56 17.8427 62.72 18.6C62.8907 19.3467 63.136 20.1467 63.456 21H62C61.7013 20.2853 61.456 19.5547 61.264 18.808C61.0827 18.0507 60.992 17.2293 60.992 16.344ZM73.8681 12.376C74.5508 12.376 75.1375 12.5733 75.6281 12.968C76.1188 13.352 76.4868 13.8853 76.7321 14.568C76.9881 15.2507 77.1161 16.024 77.1161 16.888C77.1161 18.2427 76.7961 19.304 76.1561 20.072C75.5268 20.84 74.6628 21.224 73.5641 21.224C72.4441 21.224 71.5908 20.872 71.0041 20.168C70.4281 19.4533 70.1348 18.424 70.1241 17.08V11.416C70.1241 10.6267 70.3748 10.0187 70.8761 9.592C71.3775 9.16533 72.0228 8.952 72.8121 8.952C73.2175 8.952 73.6975 8.99467 74.2521 9.08C74.6788 9.144 74.9881 9.176 75.1801 9.176C75.5215 9.176 75.9161 9.10133 76.3641 8.952L76.5241 10.008C76.0975 10.2 75.6548 10.296 75.1961 10.296C74.8655 10.296 74.4548 10.264 73.9641 10.2C73.5161 10.136 73.1588 10.104 72.8921 10.104C72.4761 10.104 72.1561 10.2213 71.9321 10.456C71.7081 10.6907 71.5961 11.0427 71.5961 11.512V13.448C72.2681 12.7333 73.0255 12.376 73.8681 12.376ZM73.5641 20.04C74.2255 20.04 74.7161 19.784 75.0361 19.272C75.3668 18.76 75.5321 17.9653 75.5321 16.888C75.5321 15.768 75.3615 14.936 75.0201 14.392C74.6895 13.8373 74.2201 13.56 73.6121 13.56C73.2068 13.56 72.8388 13.656 72.5081 13.848C72.1881 14.04 71.8841 14.3173 71.5961 14.68V16.888C71.5961 17.9547 71.7561 18.7493 72.0761 19.272C72.4068 19.784 72.9028 20.04 73.5641 20.04ZM79.3983 16.344C79.3983 15.5653 79.5369 14.8773 79.8143 14.28C80.0916 13.6827 80.4863 13.2187 80.9983 12.888C81.5209 12.5467 82.1343 12.376 82.8383 12.376C83.9049 12.376 84.7369 12.7333 85.3343 13.448C85.9423 14.1627 86.2463 15.128 86.2463 16.344C86.2463 17.2293 86.1503 18.0507 85.9583 18.808C85.7769 19.5547 85.5369 20.2853 85.2383 21H83.7823C84.1023 20.1467 84.3423 19.3467 84.5023 18.6C84.6729 17.8427 84.7583 17.0907 84.7583 16.344C84.7583 15.416 84.5876 14.7227 84.2463 14.264C83.9049 13.7947 83.4356 13.56 82.8383 13.56C82.2303 13.56 81.7503 13.7947 81.3983 14.264C81.0569 14.7227 80.8863 15.416 80.8863 16.344C80.8863 17.0907 80.9663 17.8427 81.1263 18.6C81.2969 19.3467 81.5423 20.1467 81.8623 21H80.4062C80.1076 20.2853 79.8623 19.5547 79.6703 18.808C79.4889 18.0507 79.3983 17.2293 79.3983 16.344Z" fill="#343A40"/>
</svg>
