<svg width="81" height="13" viewBox="0 0 81 13" fill="none" xmlns="http://www.w3.org/2000/svg">
<path d="M2.458 1.91C3.78333 1.91 4.85667 2.246 5.678 2.918C6.50867 3.59 6.924 4.82667 6.924 6.628C6.924 8.42933 6.504 9.694 5.664 10.422C4.83333 11.1407 3.816 11.5 2.612 11.5H0.554V1.91H2.458ZM1.394 2.61V10.8H2.668C4.91733 10.8 6.042 9.40933 6.042 6.628C6.042 5.52667 5.87867 4.682 5.552 4.094C5.22533 3.506 4.81 3.114 4.306 2.918C3.81133 2.71267 3.23267 2.61 2.57 2.61H1.394ZM11.1287 1.91C12.454 1.91 13.5274 2.246 14.3487 2.918C15.1794 3.59 15.5947 4.82667 15.5947 6.628C15.5947 8.42933 15.1747 9.694 14.3347 10.422C13.504 11.1407 12.4867 11.5 11.2827 11.5H9.2247V1.91H11.1287ZM10.0647 2.61V10.8H11.3387C13.588 10.8 14.7127 9.40933 14.7127 6.628C14.7127 5.52667 14.5494 4.682 14.2227 4.094C13.896 3.506 13.4807 3.114 12.9767 2.918C12.482 2.71267 11.9034 2.61 11.2407 2.61H10.0647ZM21.9554 0.44L18.7074 12.9L18.0074 12.718L21.2554 0.258L21.9554 0.44ZM33.2538 11.5H32.4418L32.0078 6.908C31.8305 5.12533 31.7092 3.73467 31.6438 2.736L29.2358 10.366H28.4378L25.9458 2.736C25.8992 3.64133 25.8058 4.84067 25.6658 6.334L25.6238 6.88L25.2038 11.5H24.4058L25.3158 1.91H26.4778L28.8578 9.372L31.1538 1.91H32.3298L33.2538 11.5ZM43.8523 11.5H43.0403L42.6063 6.908C42.4289 5.12533 42.3076 3.73467 42.2423 2.736L39.8343 10.366H39.0363L36.5443 2.736C36.4976 3.64133 36.4043 4.84067 36.2643 6.334L36.2223 6.88L35.8023 11.5H35.0043L35.9143 1.91H37.0763L39.4563 9.372L41.7523 1.91H42.9283L43.8523 11.5ZM50.2507 0.44L47.0027 12.9L46.3027 12.718L49.5507 0.258L50.2507 0.44ZM55.8232 7.748V11.5H54.9832V7.762L51.9172 1.91H52.8552L55.4312 7.006L57.9652 1.91H58.8612L55.8232 7.748ZM62.9763 7.748V11.5H62.1363V7.762L59.0703 1.91H60.0083L62.5843 7.006L65.1183 1.91H66.0143L62.9763 7.748ZM70.1294 7.748V11.5H69.2894V7.762L66.2234 1.91H67.1614L69.7374 7.006L72.2714 1.91H73.1674L70.1294 7.748ZM77.2825 7.748V11.5H76.4425V7.762L73.3765 1.91H74.3145L76.8905 7.006L79.4245 1.91H80.3205L77.2825 7.748Z" fill="#ADB5BD"/>
</svg>
