<svg width="16" height="16" viewBox="0 0 16 16" fill="none" xmlns="http://www.w3.org/2000/svg">
    <path d="M8 12.4C11.3137 12.4 14 9.71371 14 6.4C14 3.08629 11.3137 0.4 8 0.4C4.68629 0.4 2 3.08629 2 6.4C2 7.79367 2.48238 9.07809 3.29725 10.1074C3.43416 10.2821 3.49971 10.5037 3.47143 10.7255L3.0619 12.9451C3.02228 13.2455 3.29652 13.4928 3.59373 13.4227L5.81326 12.8622C6.00633 12.8137 6.20939 12.8543 6.37409 12.9749C6.86467 13.2651 7.41461 13.4773 8 13.4773C8.1429 13.4773 8.28361 13.4698 8.42179 13.4551C8.28487 13.1148 8.21159 12.7376 8.21159 12.3445C8.21159 10.5743 9.86482 9.13648 11.8841 9.13648C12.3464 9.13648 12.7853 9.22822 13.1837 9.39316C13.6976 8.54039 14 7.5109 14 6.4C14 3.08629 11.3137 0.4 8 0.4Z" fill="#8338EC"/>
</svg> 